<svg id="Layer_1" data-name="Layer 1" xmlns="http://www.w3.org/2000/svg" viewBox="0 0 339.39 145.96">
  <defs>
    <style>
      .cls-1 {
        fill: #7c94fb;
      }
    </style>
  </defs>
  <title>aftensmad_1</title>
  <g>
    <g>
      <path class="cls-1" d="M100.58,82.36c-28.71,0-33.43-16.28-34.13-23.27C65.62,50.8,70.39,2.93,70.59.9l.09-.9h58.19l0,1c0,.48,2.48,48.19,2.48,58a21.31,21.31,0,0,1-6.52,15.63C119.51,79.76,111.33,82.36,100.58,82.36ZM72.49,2c-.66,6.76-4.8,49.41-4,56.89,1.94,19.38,23.12,21.47,32.14,21.47C127.33,80.36,129.4,64,129.4,59c0-9-2.08-50.19-2.43-57Z"/>
      <path class="cls-1" d="M124.26,57.58c-2.77,0-5.77-1.11-8.93-2.28-3.66-1.36-7.44-2.77-11.43-2.77a15.05,15.05,0,0,0-8.22,2.37,17,17,0,0,1-9.18,2.6,24,24,0,0,1-9.66-2.06c-2.33-.91-4.16-1.63-6.77-1.26l-.28-2c3.13-.45,5.38.44,7.78,1.37A22.24,22.24,0,0,0,86.5,55.5a15.08,15.08,0,0,0,8.22-2.36,17,17,0,0,1,9.18-2.61c4.35,0,8.48,1.54,12.13,2.89,3.41,1.27,6.64,2.47,9.26,2.09l.29,2A8.37,8.37,0,0,1,124.26,57.58Z"/>
      <path class="cls-1" d="M115.4,145.32H82.45l15.47-10.64V81.36h2v53.32Zm-26.51-2H109l-10-6.9Z"/>
    </g>
    <path class="cls-1" d="M46.06,144.5H27.49l0-77.39H46.08Zm-16.57-2H44.06l0-73.39H29.51Z"/>
    <path class="cls-1" d="M17.07,144.49H1v-40.1H17.08ZM3,142.48H15.07V106.38H3Z"/>
    <path class="cls-1" d="M36.8,58.34h0c-4.31,0-7.19-1.35-8.57-4C24.16,46.54,35.5,30.12,36,29.43l.84-1.21.81,1.22c.47.71,11.45,17.35,7.32,25.06C43.6,57.05,40.85,58.34,36.8,58.34Zm0-2h0c3.3,0,5.39-.91,6.39-2.78,2.73-5.08-3.1-16.42-6.4-21.74-3.42,5.25-9.47,16.47-6.79,21.6,1,1.93,3.3,2.92,6.8,2.92Z"/>
    <path class="cls-1" d="M9.46,99.75h0c-4.3,0-7.19-1.34-8.57-4C-3.19,88,8.15,71.53,8.64,70.84l.84-1.2.81,1.22c.47.7,11.45,17.34,7.32,25.06C16.25,98.46,13.5,99.75,9.46,99.75Zm0-26.52C6,78.49,0,89.7,2.65,94.83c1,1.94,3.3,2.92,6.8,2.92h0c3.3,0,5.39-.91,6.39-2.78C18.57,89.89,12.74,78.55,9.44,73.23Z"/>
    <g>
      <path class="cls-1" d="M198.59,27.77a8.17,8.17,0,0,1-7.9-8.4,7.92,7.92,0,1,1,15.81,0A8.18,8.18,0,0,1,198.59,27.77Zm0-14.8a6.17,6.17,0,0,0-5.9,6.4,5.92,5.92,0,1,0,11.81,0A6.18,6.18,0,0,0,198.59,13Z"/>
      <path class="cls-1" d="M319.24,91a47.21,47.21,0,0,1-5.86-.35l.28-2c.14,0,14.24,1.9,20.64-3.72a9.1,9.1,0,0,0,3.09-7.37A6.91,6.91,0,0,0,335,72.27c-6.06-5.49-21.24-4.19-21.39-4.18l-.18-2c.66-.06,16.2-1.39,22.91,4.69a8.94,8.94,0,0,1,3.05,6.8,11.11,11.11,0,0,1-3.77,8.89C331.31,90.27,324.25,91,319.24,91Z"/>
      <path class="cls-1" d="M165.6,91c-5,0-12.07-.76-16.37-4.55a11.15,11.15,0,0,1-3.78-8.89,8.94,8.94,0,0,1,3.05-6.8c6.71-6.08,22.25-4.75,22.91-4.69l-.18,2c-.15,0-15.33-1.31-21.39,4.18a6.94,6.94,0,0,0-2.39,5.34A9.1,9.1,0,0,0,150.54,85c6.4,5.62,20.5,3.74,20.64,3.72l.28,2A47.21,47.21,0,0,1,165.6,91Z"/>
      <path class="cls-1" d="M293.66,146H190.51C179.19,146,170,134.88,170,121.24V57H314.19v64.2C314.19,134.88,305,146,293.66,146ZM172,59v62.2c0,12.53,8.31,22.72,18.53,22.72H293.66c10.22,0,18.53-10.19,18.53-22.72V59Z"/>
      <path class="cls-1" d="M145.1,56.31l-2.72-13.53L263.13,15l2.71,13.53Zm-.37-12,1.92,9.61L263.5,27l-1.92-9.61Z"/>
      <path class="cls-1" d="M286.5,34.16l15-14s-9.05-1.91-4.26-10,14.29-9.49,16.1-5.82,6.13-9.76,13.15-1.41.54,15.9-4.21,16.62S331,21,325.9,26.89s-7.38,14.66-13.9,4.36S286.5,34.16,286.5,34.16Z"/>
    </g>
  </g>
</svg>
