<svg id="Layer_1" data-name="Layer 1" xmlns="http://www.w3.org/2000/svg" viewBox="0 0 339.41 145.96">
  <title>aftensmad</title>
  <g>
    <g>
      <path d="M100.6,82.36c-28.71,0-33.44-16.27-34.14-23.27C65.64,50.8,70.4,2.93,70.61.9L70.7,0h58.18l.05,1c0,.48,2.49,48.19,2.49,58a21.39,21.39,0,0,1-6.52,15.64C119.52,79.76,111.35,82.36,100.6,82.36ZM72.51,2c-.67,6.76-4.8,49.41-4.06,56.89,1.94,19.38,23.13,21.47,32.15,21.47,26.74,0,28.82-16.36,28.82-21.37,0-9-2.09-50.19-2.44-57Z"/>
      <path d="M124.28,57.59c-2.78,0-5.78-1.12-8.93-2.29-3.66-1.36-7.45-2.77-11.44-2.77a15.08,15.08,0,0,0-8.22,2.37,17,17,0,0,1-9.18,2.6,24.1,24.1,0,0,1-9.66-2.06c-2.32-.91-4.16-1.63-6.76-1.26l-.29-2c3.13-.45,5.39.44,7.78,1.37a22.24,22.24,0,0,0,8.93,1.93,15.05,15.05,0,0,0,8.22-2.36,17,17,0,0,1,9.18-2.61c4.35,0,8.49,1.54,12.14,2.89,3.41,1.27,6.64,2.47,9.26,2.09l.28,2A8.17,8.17,0,0,1,124.28,57.59Z"/>
      <path d="M115.41,145.32H82.47l15.47-10.64V81.36h2v53.32Zm-26.51-2H109l-10-6.9Z"/>
    </g>
    <path d="M46.08,144.5H27.51l0-77.39H46.1Zm-16.57-2H44.08l0-73.39H29.53Z"/>
    <path d="M17.08,144.49H1v-40.1H17.09ZM3,142.48H15.08V106.38H3Z"/>
    <path d="M36.82,58.34h0c-4.3,0-7.19-1.35-8.57-4-4.07-7.8,7.28-24.22,7.76-24.91l.84-1.21.81,1.23c.47.7,11.45,17.34,7.32,25.05C43.61,57.05,40.87,58.34,36.82,58.34Zm0-2h0c3.3,0,5.39-.91,6.39-2.78,2.72-5.08-3.1-16.42-6.41-21.74-3.41,5.25-9.46,16.47-6.78,21.6,1,1.94,3.29,2.92,6.8,2.92Z"/>
    <path d="M9.47,99.75h0c-4.31,0-7.19-1.34-8.58-4C-3.17,88,8.17,71.53,8.65,70.84l.84-1.2.82,1.22c.47.7,11.45,17.34,7.32,25.06C16.26,98.46,13.52,99.75,9.47,99.75Zm0-26.52C6,78.49,0,89.7,2.67,94.83c1,1.94,3.3,2.92,6.8,2.92h0c3.3,0,5.39-.91,6.39-2.78C18.58,89.89,12.76,78.55,9.45,73.23Z"/>
    <g>
      <path d="M198.61,27.77a8.18,8.18,0,0,1-7.91-8.4,7.92,7.92,0,1,1,15.81,0A8.17,8.17,0,0,1,198.61,27.77Zm0-14.8a6.18,6.18,0,0,0-5.91,6.4,5.92,5.92,0,1,0,11.81,0A6.17,6.17,0,0,0,198.61,13Z"/>
      <path d="M319.26,91a47,47,0,0,1-5.86-.35l.27-2c.15,0,14.25,1.9,20.64-3.72a9.11,9.11,0,0,0,3.1-7.37,6.94,6.94,0,0,0-2.4-5.34c-6.05-5.49-21.23-4.19-21.38-4.18l-.18-2c.65-.06,16.2-1.39,22.9,4.69a8.91,8.91,0,0,1,3.06,6.8,11.15,11.15,0,0,1-3.78,8.89C331.32,90.27,324.27,91,319.26,91Z"/>
      <path d="M165.61,91c-5,0-12.06-.76-16.37-4.55a11.15,11.15,0,0,1-3.78-8.89,9,9,0,0,1,3.06-6.8c6.71-6.08,22.25-4.75,22.91-4.69l-.18,2c-.15,0-15.33-1.31-21.39,4.18a7,7,0,0,0-2.4,5.34,9.14,9.14,0,0,0,3.1,7.37c6.4,5.62,20.5,3.74,20.64,3.72l.28,2A47.47,47.47,0,0,1,165.61,91Z"/>
      <path d="M293.67,146H190.53C179.2,146,170,134.88,170,121.24V57H314.21v64.2C314.21,134.88,305,146,293.67,146ZM172,59v62.2c0,12.53,8.32,22.73,18.54,22.73H293.67c10.22,0,18.54-10.2,18.54-22.73V59Z"/>
      <path d="M145.11,56.31,142.4,42.78,263.15,15l2.71,13.53Zm-.37-12,1.93,9.61L263.52,27l-1.93-9.61Z"/>
      <path d="M286.51,34.16l15-14s-9-1.91-4.27-10,14.29-9.49,16.1-5.81,6.13-9.77,13.16-1.42.53,15.9-4.22,16.62,8.76,1.5,3.62,7.35-7.37,14.66-13.9,4.36S286.51,34.16,286.51,34.16Z"/>
    </g>
  </g>
</svg>
