<svg id="Layer_1" data-name="Layer 1" xmlns="http://www.w3.org/2000/svg" viewBox="0 0 276.7 164.97">
  <defs>
    <style>
      .cls-1 {
        fill: #7c94fb;
      }
    </style>
  </defs>
  <title>drinks_1</title>
  <g>
    <path class="cls-1" d="M41.3,148.31c-19,0-31.62-22.42-31.62-37.25,0-7.94,2.73-16,5.14-23.08,2.08-6.13,4.05-11.92,4.05-16.8,0-10.65-3-25-3-25.17l-.26-1.21h51.5L66.76,46a63.2,63.2,0,0,0,.13,25.7c.55,2.59,1.09,5.05,1.61,7.41,2.37,10.68,4.42,19.89,4.42,31.91C72.92,125.89,60.31,148.31,41.3,148.31ZM18,46.8c.73,3.73,2.85,15.34,2.85,24.38,0,5.21-2,11.15-4.16,17.44-2.47,7.29-5,14.83-5,22.44,0,14,11.81,35.25,29.62,35.25s29.62-21.22,29.62-35.25c0-11.8-1.93-20.48-4.37-31.47-.52-2.37-1.07-4.84-1.62-7.44a65.88,65.88,0,0,1-.38-25.35Z"/>
    <path class="cls-1" d="M38.53,140c-3.78,0-16.41-1.38-20.4-18.33C14.5,106.23,19.8,89.29,23.5,81.71c3.33-6.8.85-15.72.82-15.81L24,64.63h1.32a19.88,19.88,0,0,1,4.35.65,14.89,14.89,0,0,0,6.91.41c1-.24,2.22-.54,3.47-.86,4.19-1.06,9-2.27,11.77-2.27,2,0,3.82,1.06,5.4,2,1.19.71,2.42,1.44,3.07,1.18L61,67.59c-1.55.61-3.13-.32-4.81-1.31a9.25,9.25,0,0,0-4.38-1.72c-2.57,0-7.4,1.23-11.28,2.21-1.26.32-2.46.62-3.51.87a16.62,16.62,0,0,1-7.79-.41c-.91-.2-1.78-.4-2.63-.51.61,2.93,1.61,10-1.27,15.87-3.59,7.34-8.73,23.73-5.23,38.58.93,3.92,5,16.73,18.46,16.78Z"/>
    <polygon class="cls-1" points="37.55 66.92 27.92 20.26 0 1.66 1.11 0 29.71 19.05 39.51 66.51 37.55 66.92"/>
    <g>
      <polygon class="cls-1" points="42.95 164.97 26.07 164.97 37.26 155.1 38.35 146.67 40.33 146.92 39.15 156.1 31.36 162.97 42.95 162.97 42.95 164.97"/>
      <polygon class="cls-1" points="58.77 164.97 42.95 164.97 42.95 162.97 53.73 162.97 46.43 156.08 45.32 146.91 47.31 146.68 48.33 155.13 58.77 164.97"/>
    </g>
    <path class="cls-1" d="M142.59,89.23l-58.95-58h117Zm-54.07-56,54.06,53.23,53.24-53.23Z"/>
    <path class="cls-1" d="M162,164.81H123.21l18.38-10.61V88.11h2V154.2Zm-31.3-2h23.84l-11.92-6.88Z"/>
    <path class="cls-1" d="M142,78.31c-10.74-11.63-28.95-30.38-32.14-31.18-.39-.09-1.2-.3-1.39-1a1.1,1.1,0,0,1,.33-1.1c1.26-1.17,17.67-2.2,21.43-.94,3.55,1.18,13.9,3.45,19.49,3.45,2.55,0,6.39-1,10.1-1.9,4.84-1.22,9-2.28,11.2-1.55l-.64,1.9c-1.62-.54-6.11.59-10.07,1.59s-7.79,2-10.59,2c-5.88,0-16.37-2.3-20.12-3.55-2.18-.73-12.84-.42-17.49.16,7.43,5,28.73,28,31.36,30.84Z"/>
    <rect class="cls-1" x="118.98" y="10.4" width="2" height="36.97" transform="translate(1.38 63) rotate(-29.59)"/>
    <rect class="cls-1" x="225.56" y="33.42" width="23.4" height="13.88"/>
    <path class="cls-1" d="M237.26,164.68H197.82V78.27c0-9.5,22.66-16.41,27.76-17.85V50.57h11.68v2h-9.68V62l-.74.2c-7.51,2-27,8.86-27,16.12v84.41h37.44Z"/>
    <path class="cls-1" d="M276.7,164.68H237.26v-2H274.7V78.27c0-7.26-19.51-14.1-27-16.12l-.74-.2V52.57h-9.68v-2h11.68v9.85c5.09,1.44,27.76,8.35,27.76,17.85Z"/>
    <path class="cls-1" d="M276.51,132.65H197.7V97.55h78.81Zm-76.81-2h74.81V99.55H199.7Z"/>
  </g>
</svg>
