<svg id="Layer_1" data-name="Layer 1" xmlns="http://www.w3.org/2000/svg" viewBox="0 0 201.13 63.46">
  <title>karamel3</title>
  <g>
    <path d="M134.51,63.47c-7,0-15.34-.13-25.27-.42-30.48-.9-61.69-3-65.48-3.6l-.23-.07c-.59-.25-14.5-6.31-18.71-19.75l1.91-.6C30.48,51,42.91,56.91,44.2,57.5c4.27.62,35,2.67,65.1,3.55,56.43,1.66,60.43-2.1,60.65-2.87,2.37-8,1.68-24.44,0-30.54a49.17,49.17,0,0,0-7.06-13.43c-3-4.11-7.65-9.15-12.71-9.76C137.82,3,39.18-.18,33,4.27L31.79,2.64c7.43-5.3,110.08-1.21,118.63-.18,10.5,1.27,19.72,18.37,21.46,24.65,1.78,6.46,2.49,23.2,0,31.64C171.46,60.14,170.47,63.47,134.51,63.47Z"/>
    <path d="M44,57.2l-2-.38c.06-.31,5.87-30.79,5.87-35.43,0-3-9.28-11.62-15.53-16.67-1.34,1-4.64,3.92-5.74,7.89l-1.93-.53c1.6-5.76,6.93-9.31,7.15-9.46l.61-.4.57.46c2.81,2.24,16.87,13.7,16.87,18.71C49.87,26.22,44.2,55.93,44,57.2Z"/>
    <path d="M135.69,25.24c-34.8,0-83.9-2.68-86.88-2.85l.11-2c1.06.05,105.75,5.77,119,.82l.71,1.87C164.34,24.69,151.49,25.24,135.69,25.24Z"/>
    <path d="M5,45.63c-3.74,0-4.78-1.34-4.95-2.57-.62-4.46,5-8.6,9-11-3.71-.15-8.44-1-9-4.55C-.7,23.2,7.4,18.72,11.69,16.67,7,14.68-.15,11.15.33,8.06.62,6.17,3.11,5.18,8.4,4.85,27.88,3.62,36.53,26.8,36.61,27l.06.27C37.34,36.07,18,44.35,7.19,45.5A20.06,20.06,0,0,1,5,45.63ZM19.4,29.34l-5.58,2.53C10.34,33.45,1.44,38.49,2,42.78c.07.5,1.44,1.11,5,.73,9.63-1,28-8.85,27.7-15.92C34,25.77,25.78,5.76,8.52,6.85c-5.88.37-6.21,1.5-6.22,1.52C2.11,9.63,8,13.12,14.59,15.68l2.29.89-2.26,1C9.11,19.89,1.55,24.44,2,27.2c.55,3.15,8.53,3.05,11.28,2.77Z"/>
    <path d="M197.37,50.46c-6.42,0-23.94-4.2-25.66-6.24l1.53-1.29c1.82,1.69,23.36,6.69,25.73,5.35a1.24,1.24,0,0,0,.1-1c-.74-2.85-7.84-7.3-12.13-9.43L182,35.38l5.49.56c2.75.29,10.74.39,11.28-2.76.47-2.76-7.08-7.32-12.6-9.67l-2.1-.9,2.08-.93c7.14-3.21,12.22-6.81,12-7.87,0,0-.45-1-5.81-1-7.37,0-20.06,7.17-22.24,10.33L168.44,22c2.69-3.89,16.29-11.19,23.89-11.19,5,0,7.38.79,7.76,2.56.65,3-6.47,7-11.13,9.19,4.26,2,12.54,6.55,11.78,10.94-.62,3.57-5.47,4.43-9.2,4.55,3.63,2.14,8.66,5.6,9.47,8.69a3.23,3.23,0,0,1-.43,2.7c-.41.61-1.21.91-2.59,1ZM199,48.25Z"/>
    <polygon points="82.19 60.95 80.2 60.79 83.2 23.27 56.43 1.9 57.68 0.34 85.28 22.36 82.19 60.95"/>
    <polygon points="100.13 61.71 98.13 61.71 98.13 23.23 76.28 1.71 77.68 0.29 100.13 22.4 100.13 61.71"/>
    <polygon points="112.2 61.92 110.21 23.22 94.38 1.87 95.98 0.68 112.18 22.52 114.19 61.82 112.2 61.92"/>
    <polygon points="125.2 62.97 121.22 23.2 107.71 2.13 109.4 1.05 123.17 22.53 127.19 62.77 125.2 62.97"/>
    <polygon points="138.2 62.92 136.05 24.5 125.21 2.61 127 1.72 138.03 23.97 138.04 24.18 140.19 62.81 138.2 62.92"/>
  </g>
</svg>
