<svg id="Layer_1" data-name="Layer 1" xmlns="http://www.w3.org/2000/svg" viewBox="0 0 128.06 122.47">
  <title>karamel1</title>
  <g>
    <path d="M50.56,122.47c-10.37,0-32.76-9.26-44.44-15.1C-3.55,102.53,0,65.79,4.66,30.49c.43-3.21.77-5.75.91-7.12.92-9.24,25-17,45.85-22.62L52.3.51C63.14-2.44,117,9.38,123.36,17.87c3.47,4.63,4.7,26.45,4.7,43.73,0,6.27-.23,37.79-4.86,41.64C119,106.71,95.45,113,88.31,114.81,74,118.5,56.09,122.47,50.56,122.47ZM57.75,2a19.23,19.23,0,0,0-4.92.49L52,2.68C41.19,5.6,8.46,14.51,7.56,23.57c-.14,1.41-.48,4-.91,7.19-2.31,17.3-9.33,70,.36,74.82,12.37,6.18,34.06,14.89,43.55,14.89,4.52,0,20.19-3.19,37.25-7.59,18.21-4.7,31.6-9.08,34.11-11.18,2.06-1.71,4.14-16,4.14-40.1,0-21.67-1.77-39.15-4.3-42.53C117,12.68,74.81,2,57.75,2Z"/>
    <path d="M50.56,107.58l-2-.21C50.23,91.43,54,48.74,51.64,42.84,49.32,37.1,26,28.32,17.25,25.42l.63-1.9c.08,0,8.13,2.7,16.45,6.24,11.53,4.91,17.79,9,19.16,12.33C56.55,49.66,50.8,105.22,50.56,107.58Z"/>
    <path d="M62,28.34a32.72,32.72,0,0,1-17.37-4.78c-2.47-1.56-2.87-3.31-2.78-4.5.36-4.4,7.73-7.86,10-8.81C56.65,8.2,65.2,8,69.4,10.76a4.79,4.79,0,0,1,2.41,4.05,4.13,4.13,0,0,1-1.36,3.08c-3.33,3.18-12.14,2.8-12.52,2.79l.1-2c2.31.11,8.79-.08,11-2.24a2.15,2.15,0,0,0,.74-1.63,2.84,2.84,0,0,0-1.51-2.38c-3.26-2.16-11-2.32-15.7-.34-5.07,2.15-8.59,5-8.76,7.13,0,.35-.12,1.41,1.85,2.65,3.49,2.2,13.09,6.91,26.76,2.92,7.61-2.21,11.47-5.16,11.47-8.76h2c0,4.59-4.34,8.19-12.91,10.68A39.33,39.33,0,0,1,62,28.34Z"/>
  </g>
</svg>
