<svg id="Layer_1" data-name="Layer 1" xmlns="http://www.w3.org/2000/svg" viewBox="0 0 141.53 113.19">
  <title>karamel2</title>
  <g>
    <path d="M66.87,113.19c-7.3,0-24.86-8.15-40.36-15.34-8.44-3.92-15.73-7.3-20-8.71-13.66-4.55-2-61.58-.64-66.23C9.16,12.09,77-1.8,86.08.22s40.33,17.13,48.32,22.13c9,5.62,7.25,59.85,6.46,66.95-.49,4.44-11.75,9.73-33.48,15.73C91.36,109.46,72.81,113.19,66.87,113.19ZM83.15,2C68.07,2,10.33,15.13,7.83,23.48,5.19,32.27-3.36,83.73,7.18,87.24c4.34,1.45,11.68,4.85,20.17,8.8C41.9,102.79,60,111.19,66.87,111.19c5,0,22.72-3.32,40-8.09,23.17-6.39,31.74-11.43,32-14,1.11-9.91,1.61-60.58-5.53-65C125.43,19.1,94.62,4.16,85.65,2.17A11.78,11.78,0,0,0,83.15,2Z"/>
    <path d="M63.16,102.19l-2-.06c0-.51,1.66-50.31,0-58.32-1.12-5.49-28.49-11.25-45.47-13.6l.28-2c4.64.64,45.37,6.51,47.15,15.17C64.83,51.64,63.23,100.13,63.16,102.19Z"/>
    <path d="M113.39,67.83a5.28,5.28,0,0,1-4.32-2c-2-2.71-1.32-9.4-.63-15.87.42-4,.82-7.68.45-9.53s-2.13-3.48-4.62-4.39c-3.16-1.15-6.6-.77-8.78,1s-.74,4.89,1.36,9.27c1.54,3.21,3,6.24,1.91,8.4a5.47,5.47,0,0,1-4,3.24,6.71,6.71,0,0,1-5.56-2c-2.71-2.72-3-7-3.2-10.79-.13-2.24-.26-4.37-.92-5.36-1.18-1.77-6.45-.51-8.82.38l-.7-1.87c.89-.34,8.81-3.18,11.18.38,1,1.44,1.1,3.72,1.26,6.35.2,3.43.44,7.32,2.62,9.5A4.72,4.72,0,0,0,94.4,55.9,3.55,3.55,0,0,0,97,53.75c.64-1.28-.66-4-1.93-6.65-2-4.17-4.27-8.91-.8-11.69,3.29-2.63,7.69-2.39,10.71-1.29,3.19,1.16,5.4,3.36,5.9,5.88.43,2.15,0,5.85-.42,10.13-.59,5.52-1.32,12.38.24,14.46a3.76,3.76,0,0,0,4.32,1,5.58,5.58,0,0,0,3.88-5.36c0-1.32-.3-3.65-.64-6.35-1-7.73-2.32-18.3.86-22.27a13.4,13.4,0,0,1,9.78-5.38v2c-.18,0-4.59.09-8.22,4.63-2.65,3.31-1.32,13.81-.44,20.76a66.22,66.22,0,0,1,.66,6.61,7.57,7.57,0,0,1-5.25,7.26A7.11,7.11,0,0,1,113.39,67.83Z"/>
  </g>
</svg>
