<svg id="Layer_1" data-name="Layer 1" xmlns="http://www.w3.org/2000/svg" viewBox="0 0 322.27 270.97">
  <title>lakrids1</title>
  <g>
    <path d="M46.76,151.43l-1.8-.86c4.23-8.9,20.95-21.46,49.66-37.32,21.29-11.76,41.62-21.07,41.82-21.16l.83,1.82C136.47,94.28,56.49,131,46.76,151.43Z"/>
    <path d="M79.81,151.3l-1.91-.6c4.63-14.73,27.68-37,68.5-66.14,30.31-21.65,59.65-39.24,59.94-39.42l1,1.72C206.2,47.56,90.57,117.06,79.81,151.3Z"/>
    <path d="M98.49,167.77l-1.27-1.54c.46-.38,45.88-38.09,53.69-60.56,8-23,87.91-89.61,91.31-92.44l1.28,1.54c-.83.69-82.88,69.08-90.7,91.56-3.37,9.68-13.54,23-30.24,39.51C110.17,158.1,98.61,167.68,98.49,167.77Z"/>
    <path d="M124.72,180.51l-1.72-1c.16-.27,16-27.08,20.94-38.87,3.12-7.5,19.27-27.17,32.24-43,7.87-9.59,14.67-17.87,15.78-20.09,1.67-3.32,17.24-23.84,30.74-40.92C251.66,0,254,0,254.86,0h1.24l-.27,1.22A8.29,8.29,0,0,0,257,7.13c1.19,1.63,3.2,2.6,6,2.87,2.09.21,4.43.33,6.92.46,9.57.49,20.42,1,23.85,7,2.08,3.64,1.66,7.77,1.29,11.41-.38,3.82-.72,7.12,1.55,9.38s6.35,5.17,10.76,8.33c5.42,3.88,11,7.89,13.31,10.76,2.46,3.07,1.63,7.53.75,12.25-.7,3.78-1.42,7.68-.56,11.13,2.2,8.81-.41,20.12-6.21,26.89-.48.59-12.18,15.17-19.27,19.22-6.87,3.93-28.56,19.24-28.78,19.39l-1.16-1.63c.9-.64,22-15.52,28.95-19.5,6.76-3.86,18.6-18.61,18.72-18.75,5.43-6.35,7.87-16.9,5.81-25.14-1-3.86-.2-8,.54-12,.79-4.26,1.53-8.29-.35-10.65C317,56,311.47,52.05,306.16,48.25c-4.48-3.21-8.71-6.24-11-8.54-2.93-2.94-2.52-7-2.12-11,.36-3.51.72-7.13-1-10.21-2.88-5.05-13.15-5.58-22.21-6-2.51-.13-4.88-.25-7-.46-3.4-.34-5.9-1.59-7.43-3.71A9.16,9.16,0,0,1,253.7,3c-9.36,8.56-56.8,69.18-59.95,75.49-1.21,2.42-7.75,10.38-16,20.46-12.89,15.71-28.94,35.25-31.95,42.47C140.81,153.31,124.88,180.24,124.72,180.51ZM255,2Z"/>
    <path d="M137.57,211.71l-1.42-1.42c4.08-4.08,52.25-68.44,61.86-83.82,5.35-8.57,17.38-21.26,29-33.53,10.3-10.88,21-22.12,27-30.53C266.84,44.7,281.8,12.89,282,12.58l1.81.84c-.15.33-15.19,32.3-28.09,50.17-6.15,8.51-16.85,19.8-27.2,30.72-11.56,12.21-23.52,24.82-28.76,33.22C189.62,143.66,141.83,207.44,137.57,211.71Z"/>
    <path d="M144.86,238a2.25,2.25,0,0,1-2.23-1.28c-3-6.63,30.13-46,30.47-46.37C179,183.47,207,144.58,215,128.55c8.28-16.56,39.83-49.89,47.19-57.26,8.85-8.85,30.69-37.61,30.91-37.89l1.59,1.2c-.9,1.19-22.14,29.16-31.08,38.11-7.32,7.32-38.66,40.41-46.82,56.74-8.07,16.14-36.2,55.28-42.13,62.2-11.16,13-31.92,40.43-30.17,44.23,0,.08.17.12.41.12,2.76,0,23-17,71.47-64.38,33-32.31,67.7-67.69,72.74-74.23C299,84.5,319.92,62.53,320.13,62.31l1.45,1.38c-.21.22-21.08,22.11-30.93,34.92-5.08,6.6-39.86,42.1-73,74.48C187.4,202.7,150.18,238,144.86,238Z"/>
    <path d="M202.13,187.58l-1-1.73c.43-.25,43.36-24.79,53.27-29.74,7.73-3.87,45.66-55.78,64.63-82.69l1.64,1.16c-2.26,3.19-55.27,78.26-65.37,83.31C245.44,162.83,202.56,187.34,202.13,187.58Z"/>
    <path d="M98.07,271c-4.91,0-9-3-13.42-6.07-4.77-3.4-9.7-6.92-16.35-7.42a66.11,66.11,0,0,0-13.23.61c-6.43.76-12.5,1.48-19.11-1.74-8.83-4.31-9.54-10.21-10.17-15.41-.37-3.13-.73-6.09-2.74-8.63-1.72-2.19-4.68-4.16-7.81-6.25C8.45,221.54,0,215.9,0,204.83,0,197,7.13,192.18,13.43,188c4.84-3.25,9.41-6.31,9.41-10,0-9.5,0-21.33,13.18-26.75,5.83-2.4,12.75-1.6,20.08-.76,9.14,1,18.59,2.14,27.82-2.32h0a4.09,4.09,0,0,1,3.32-.23c2.85,1,4.71,5.22,6.87,10.06,2.31,5.2,4.94,11.08,8.93,12.89,2.47,1.12,5.66,2.25,9,3.45,9.45,3.36,20.16,7.16,24.49,13.42,2.71,3.93,2.34,10.25,1.9,17.56-.51,8.72-1.1,18.62,3.81,25.84,2.18,3.2,2.8,5.91,1.89,8.27-1.8,4.66-9.12,6.42-16.21,8.13a54.21,54.21,0,0,0-8.93,2.63c-3.87,1.75-6.07,5.9-8.2,9.9-2.67,5-5.42,10.23-11.53,10.85Q98.69,271,98.07,271ZM64.85,255.35c1.16,0,2.36,0,3.6.13,7.2.55,12.6,4.39,17.36,7.79,4.61,3.28,8.59,6.12,13.29,5.65,5-.51,7.43-5,10-9.79,2.29-4.31,4.65-8.76,9.14-10.79a56.23,56.23,0,0,1,9.29-2.76c6.28-1.51,13.39-3.22,14.81-6.9.66-1.7.11-3.8-1.67-6.43-5.3-7.78-4.69-18-4.15-27.08.39-6.65.77-12.94-1.56-16.3-4-5.74-14.8-9.58-23.5-12.67-3.43-1.22-6.66-2.37-9.2-3.52-4.69-2.12-7.48-8.37-9.94-13.89-1.89-4.25-3.67-8.25-5.73-9a2.14,2.14,0,0,0-1.76.17h0c-9.75,4.7-19.94,3.53-28.92,2.5-7.06-.82-13.73-1.58-19.09.62C24.84,158,24.84,168.6,24.84,178c0,4.76-5,8.11-10.3,11.66C8.38,193.76,2,198,2,204.83c0,10,7.62,15.08,14.34,19.57,3.27,2.17,6.36,4.23,8.28,6.67,2.36,3,2.76,6.36,3.16,9.63.62,5.15,1.21,10,9.06,13.85,6.08,3,11.6,2.31,18,1.56A81.8,81.8,0,0,1,64.85,255.35Z"/>
    <path d="M9.86,193.08l-2-.16c0-.34.68-8.48,4.13-14.42s11.93-12.05,12.29-12.31l1.16,1.62c-.08.06-8.48,6.13-11.72,11.69S9.86,193,9.86,193.08Z"/>
  </g>
</svg>
