<svg id="Layer_1" data-name="Layer 1" xmlns="http://www.w3.org/2000/svg" viewBox="0 0 485.27 429.97">
  <title>lakrids2</title>
  <g>
    <path d="M46.76,310.43l-1.8-.86c4.22-8.88,26.63-26.47,66.61-52.28,29.67-19.17,58.5-36,58.78-36.15l1,1.72C170.21,223.53,56.52,290,46.76,310.43Z"/>
    <path d="M79.81,310.3l-1.91-.6C82.53,295,112.63,266,167.37,223.58c40.68-31.52,80.52-59.13,80.92-59.4l1.14,1.64C247.84,166.92,90.58,276,79.81,310.3Z"/>
    <path d="M98.49,326.77l-1.27-1.54c.46-.38,45.88-38.09,53.69-60.56,7.94-22.83,86.75-88.65,91.22-92.37,2.83-3.68,49.29-64.2,59.28-69.19,9.83-4.92,66.45-43.74,67-44.13l1.13,1.65c-2.33,1.6-57.31,39.29-67.25,44.26-9.69,4.85-58.17,68.08-58.66,68.72l-.15.16c-.83.69-82.88,69.08-90.7,91.56C144.8,288.33,100.38,325.21,98.49,326.77Z"/>
    <path d="M120.67,337.9l-1.54-1.28c2-2.42,49.16-59.44,59.15-66.44,9.71-6.79,30.5-43.31,30.71-43.67l.17-.23c.86-.83,85.91-83,90.78-94.66,3.09-7.43,21.38-23.41,36.08-36.26,9.17-8,17.83-15.59,18.94-17.81,1.67-3.32,17.24-23.84,30.74-40.92C414.66,0,417,0,417.86,0h1.24l-.27,1.22A8.29,8.29,0,0,0,420,7.13c1.19,1.63,3.2,2.6,6,2.87,2.09.21,4.43.33,6.92.46,9.57.49,20.42,1,23.85,7,2.08,3.64,1.66,7.77,1.29,11.41-.38,3.82-.72,7.12,1.55,9.38s6.35,5.17,10.76,8.33c5.42,3.88,11,7.89,13.31,10.76,2.46,3.07,1.63,7.53.75,12.25-.7,3.78-1.42,7.68-.56,11.13,2.2,8.81-.41,20.12-6.21,26.89-.48.59-12.18,15.17-19.27,19.22-6.87,3.93-28.56,19.24-28.78,19.39-14.84,10.86-43.74,33-46.82,39.19-4.07,8.13-59.95,46.73-62.32,48.37l-1.14-1.64c20-13.79,58.6-41.48,61.67-47.63,4.07-8.12,45.67-38.62,47.44-39.91.91-.65,22-15.53,29-19.51,6.76-3.86,18.6-18.61,18.72-18.75,5.43-6.35,7.87-16.9,5.81-25.14-1-3.86-.2-8,.54-12,.79-4.26,1.53-8.29-.35-10.65C480,56,474.47,52.05,469.16,48.25c-4.48-3.21-8.71-6.24-11-8.54-2.93-2.94-2.52-7-2.12-11,.36-3.51.72-7.13-1-10.21-2.88-5.05-13.15-5.58-22.21-6-2.51-.13-4.88-.25-7-.46-3.4-.34-5.9-1.59-7.43-3.71A9.16,9.16,0,0,1,416.7,3c-9.36,8.56-56.8,69.18-59.95,75.49-1.22,2.45-8.17,8.59-19.42,18.42-14.54,12.71-32.64,28.52-35.55,35.51-5,12-86.34,90.62-91.12,95.24-1.58,2.76-21.35,37.29-31.23,44.2S121.16,337.31,120.67,337.9ZM418,2Z"/>
    <path d="M137.57,370.71l-1.42-1.42c4.08-4.08,52.25-68.44,61.86-83.82,5.35-8.57,17.38-21.26,29-33.53,10.3-10.88,21-22.12,27-30.53a301.16,301.16,0,0,1,23.47-28.26c3.38-3.7,6.56-7.2,9.57-10.79A158.47,158.47,0,0,1,299.38,170c8.08-7.61,17.23-16.22,23.65-25.6,6.84-10,26.71-29.19,45.92-47.73C386.64,79.62,403.36,63.47,409,55.42c13.46-19.07,31.83-43.77,32-44l1.6,1.2c-.18.24-18.54,24.93-32,44-5.79,8.2-22.57,24.41-40.34,41.56-19.13,18.48-38.92,37.59-45.65,47.42-6.54,9.57-15.78,18.26-23.93,25.93a161.57,161.57,0,0,0-12.13,12.15c-3,3.62-6.23,7.14-9.62,10.86a298.07,298.07,0,0,0-23.33,28.09c-6.15,8.51-16.85,19.8-27.2,30.72-11.56,12.21-23.52,24.82-28.76,33.22C189.62,302.66,141.83,366.44,137.57,370.71Z"/>
    <path d="M144.86,397a2.25,2.25,0,0,1-2.23-1.28c-3-6.63,30.13-46,30.47-46.37C179,342.47,207,303.58,215,287.55c8.28-16.56,39.83-49.89,47.19-57.26,4.23-4.23,9.51-11.27,14.61-18.07,5.72-7.63,11.64-15.52,16.42-19.95,8.69-8.07,38.19-35.93,52.87-55.86,13.79-18.71,39.14-46.17,62.24-62.23,22.62-15.74,47.74-46,48-46.27l1.54,1.28c-.25.31-25.54,30.74-48.39,46.63S361.35,119,347.66,137.59c-14.79,20.08-44.4,48-53.12,56.14-4.65,4.31-10.51,12.13-16.18,19.69-5.14,6.86-10.46,14-14.79,18.29-7.32,7.32-38.66,40.41-46.82,56.74-8.07,16.14-36.2,55.28-42.13,62.2-11.16,13-31.92,40.43-30.17,44.23,0,.08.17.12.41.12,2.76,0,23-17,71.47-64.38,33-32.31,67.7-67.69,72.74-74.23,9.58-12.45,29.44-33.38,31-35,1.42-2.6,19.31-35.27,27.29-40.26,1.16-.72,3.25-2,6.13-3.67,16-9.49,58.59-34.69,69.6-49.09C436,111.52,482.34,68.76,482.8,68.33l1.36,1.47c-.47.43-46.71,43.07-59.51,59.81-11.24,14.7-52.54,39.15-70.17,49.59-2.87,1.7-5,2.93-6.09,3.65-7.69,4.8-26.46,39.28-26.65,39.63l-.16.21c-.21.22-21.08,22.11-30.93,34.92-5.08,6.6-39.86,42.1-73,74.48C187.4,361.7,150.18,397,144.86,397Z"/>
    <path d="M202.13,346.58l-1-1.73c.43-.25,43.36-24.79,53.27-29.74,7.73-3.87,45.58-55.68,64.57-82.61.87-1.93,11.62-25.54,28.3-37.32,4.36-3.07,10.86-7.47,18.39-12.56C385.76,169,416.13,148.51,419,143.5c4-7.05,61.73-60.94,64.19-63.23l1.36,1.46c-20.71,19.33-60.71,57.33-63.81,62.77-2.86,5-26.12,21-53.94,39.78-7.52,5.08-14,9.47-18.36,12.54-16.57,11.69-27.55,36.34-27.66,36.58l-.09.18c-2.26,3.19-55.27,78.26-65.37,83.31C245.44,321.83,202.56,346.34,202.13,346.58Z"/>
    <path d="M98.07,430c-4.91,0-9-3-13.42-6.07-4.77-3.4-9.7-6.92-16.35-7.42a66.11,66.11,0,0,0-13.23.61c-6.43.76-12.5,1.48-19.11-1.74-8.83-4.31-9.54-10.21-10.17-15.41-.37-3.13-.73-6.09-2.74-8.63-1.72-2.19-4.68-4.16-7.81-6.25C8.45,380.54,0,374.9,0,363.83,0,356,7.13,351.18,13.43,347c4.84-3.25,9.41-6.31,9.41-10,0-9.5,0-21.33,13.18-26.75,5.83-2.4,12.75-1.6,20.08-.76,9.14,1.05,18.59,2.14,27.82-2.32h0a4.09,4.09,0,0,1,3.32-.23c2.85,1,4.71,5.22,6.87,10.06,2.31,5.2,4.94,11.08,8.93,12.89,2.47,1.12,5.66,2.25,9,3.45,9.45,3.36,20.16,7.16,24.49,13.42,2.71,3.93,2.34,10.25,1.9,17.56-.51,8.72-1.1,18.62,3.81,25.84,2.18,3.2,2.8,5.91,1.89,8.27-1.8,4.66-9.12,6.42-16.21,8.13a54.21,54.21,0,0,0-8.93,2.63c-3.87,1.75-6.07,5.9-8.2,9.9-2.67,5-5.42,10.23-11.53,10.85Q98.69,430,98.07,430ZM64.85,414.35c1.16,0,2.36,0,3.6.13,7.2.55,12.6,4.39,17.36,7.79,4.61,3.28,8.59,6.12,13.29,5.65,5-.51,7.43-5,10-9.79,2.29-4.31,4.65-8.76,9.14-10.79a56.23,56.23,0,0,1,9.29-2.76c6.28-1.51,13.39-3.22,14.81-6.9.66-1.7.11-3.8-1.67-6.43-5.3-7.78-4.69-18-4.15-27.08.39-6.65.77-12.94-1.56-16.3-4-5.74-14.8-9.58-23.5-12.67-3.43-1.22-6.66-2.37-9.2-3.52-4.69-2.12-7.48-8.37-9.94-13.89-1.89-4.25-3.67-8.25-5.73-9a2.14,2.14,0,0,0-1.76.17h0c-9.75,4.7-19.94,3.53-28.92,2.5-7.06-.82-13.73-1.58-19.09.62C24.84,317,24.84,327.6,24.84,337c0,4.76-5,8.11-10.3,11.66C8.38,352.76,2,357,2,363.83c0,10,7.62,15.08,14.34,19.57,3.27,2.17,6.36,4.23,8.28,6.67,2.36,3,2.76,6.36,3.16,9.63.62,5.15,1.21,10,9.06,13.85,6.08,3,11.6,2.31,18,1.56A81.8,81.8,0,0,1,64.85,414.35Z"/>
    <path d="M9.86,352.08l-2-.16c0-.34.68-8.48,4.13-14.42s11.93-12.05,12.29-12.31l1.16,1.62c-.08.06-8.48,6.13-11.72,11.69S9.86,352,9.86,352.08Z"/>
  </g>
</svg>
