<svg id="Layer_1" data-name="Layer 1" xmlns="http://www.w3.org/2000/svg" viewBox="0 0 289.7 205">
  <defs>
    <style>
      .cls-1 {
        fill: #7c94fb;
      }
    </style>
  </defs>
  <title>morgenmad_1</title>
  <g>
    <path class="cls-1" d="M265.4,205h-81V78.35L166.3,56h18.44c1.53-3.21,9.69-16.63,39.66-16.79C257.57,39,264,52.45,265.17,56h.23Zm-79-2h77V58h-77ZM170.5,58l13.9,17.18V58ZM187,56h76c-1.57-3.72-8.8-15-38.61-14.79C198.15,41.35,189.34,52.15,187,56Z"/>
    <path class="cls-1" d="M224.9,184c-10.58,0-20.54-.42-28-1.18C184.4,181.56,184.4,180,184.4,179s0-2.56,12.47-3.82c7.49-.76,17.45-1.18,28-1.18s20.54.42,28,1.18C265.4,176.44,265.4,178,265.4,179s0,2.56-12.47,3.82C245.44,183.58,235.48,184,224.9,184Zm-38.13-5c2.85,1.34,16.56,3,38.13,3s35.28-1.66,38.13-3c-2.85-1.34-16.56-3-38.13-3S189.62,177.66,186.77,179Z"/>
    <rect class="cls-1" x="223.4" y="14" width="2" height="165"/>
    <circle class="cls-1" cx="224.9" cy="9.5" r="9.5"/>
    <path class="cls-1" d="M270.18,142.57a21.86,21.86,0,0,1-5.8-.74l.56-1.92c.09,0,8.71,2.47,15.21-2.43,5.05-3.8,7.59-11,7.55-21.3,0-7.66-2.18-13.31-6.39-16.78-6.65-5.49-16.37-3.74-16.46-3.72l-.38-2c.44-.08,10.71-1.95,18.1,4.13,4.69,3.87,7.09,10,7.13,18.33,0,11-2.77,18.72-8.36,22.92A18.41,18.41,0,0,1,270.18,142.57Z"/>
    <path class="cls-1" d="M238.49,112.09c-5.65,0-10.78-2.12-15.36-4-3.83-1.58-7.44-3.07-10.73-3.07-7.66,0-20.4,6.81-20.52,6.88l-.95-1.76c.54-.29,13.31-7.12,21.47-7.12,3.68,0,7.48,1.57,11.49,3.23,5.14,2.12,10.45,4.32,16.42,3.77a47.15,47.15,0,0,0,17.59-4.87l1,1.74A48.76,48.76,0,0,1,240.49,112C239.82,112.06,239.15,112.09,238.49,112.09Z"/>
    <g>
      <path class="cls-1" d="M157.32,182.32a26.74,26.74,0,0,1-5.3-.51l.44-1.95c.1,0,9.65,2.08,15.73-2.83,3.46-2.78,5.19-7.33,5.16-13.5,0-4.26-1.42-7.64-4.15-10-6.44-5.63-18.28-4.18-18.4-4.16l-.26-2c.53-.06,12.85-1.59,20,4.64,3.18,2.78,4.81,6.65,4.84,11.52,0,6.82-1.95,11.89-5.91,15.08C165.68,181.62,160.92,182.32,157.32,182.32Z"/>
      <path class="cls-1" d="M124.87,201.7c-10.09,0-20.14-1.44-24-4.68-8-6.64-1.15-53.81-.35-59.17l.13-.85h49.67l.08.9c0,.14,1.31,13.46,1.95,27.24,1.31,28.27-1.36,30.94-2.23,31.82C147.09,200,136,201.7,124.87,201.7ZM102.34,139c-2.17,14.85-6.12,51.57-.22,56.49,7.27,6,41.56,5,46.55.06,3.48-3.48,1.75-36.14-.2-56.55Z"/>
      <path class="cls-1" d="M107,133.1a3.77,3.77,0,0,1,1-3.06c2.29-2.83,8-4.26,16.84-4.26,19.4,0,23.6-3.48,23.6-4.34,0,0-.54-2.82-19.71-2.82-9.68,0-16.74-2.13-17.19-5.19-.08-.6,0-2.09,2.66-2.88,1.91-.56,5.36-.72,9.35-.91,5.08-.23,14.53-.67,14.53-2.71h2c0,3.95-8,4.32-16.44,4.71-3.7.17-7.19.34-8.87.83-1,.28-1.23.6-1.25.68s.6,1.09,3.43,2a38.77,38.77,0,0,0,11.78,1.47c19.46,0,21.71,2.75,21.71,4.82,0,3.91-9.81,6.34-25.6,6.34-10.65,0-14.1,2.15-15.21,3.42a2,2,0,0,0-.63,1.51Z"/>
    </g>
    <g>
      <path class="cls-1" d="M58.25,197.91H22.76c-8.14,0-14.64-7.06-18.82-20.42A102.06,102.06,0,0,1,.08,157.55L0,156.48H82.93l0,1a82.12,82.12,0,0,1-3.37,20C75.36,190.85,68,197.91,58.25,197.91ZM2.18,158.48c.64,6.23,4.67,37.43,20.58,37.43H58.25c19.45,0,22.25-31.32,22.61-37.43Z"/>
      <rect class="cls-1" x="63.08" y="135.79" width="28.52" height="2" transform="translate(-74.42 96.03) rotate(-45.48)"/>
      <path class="cls-1" d="M36.5,157.56l-1.81-.85c.09-.18,2.05-4.61-3-7.66s-8.65,2.17-8.8,2.39l-1.66-1.12c1.65-2.44,6.17-6.2,11.49-3C39.35,151.34,36.53,157.5,36.5,157.56Z"/>
      <path class="cls-1" d="M20.21,157.68l-1.79-.9c.16-.33,1.49-3.38-2.36-5.58s-6.84,1.62-7,1.78l-1.63-1.16c1.38-1.92,5.15-4.89,9.58-2.35S21.07,156,20.21,157.68Z"/>
      <path class="cls-1" d="M55.36,157.68l-1.79-.9a5.86,5.86,0,0,0-2.39-7.66c-4.68-2.92-8.85,2.3-9,2.52l-1.58-1.23c1.86-2.39,6.69-6.09,11.66-3A7.8,7.8,0,0,1,55.36,157.68Z"/>
      <path class="cls-1" d="M75.34,157.68l-1.78-.9a5.86,5.86,0,0,0-2.4-7.66c-4.67-2.92-8.84,2.3-9,2.52l-1.57-1.23c1.86-2.39,6.69-6.09,11.65-3A7.79,7.79,0,0,1,75.34,157.68Z"/>
      <path class="cls-1" d="M67.53,147.55l-2-.44a5.85,5.85,0,0,0-4.16-6.86c-5.24-1.71-8,4.36-8.15,4.62l-1.83-.82c1.23-2.77,5-7.52,10.6-5.7A7.77,7.77,0,0,1,67.53,147.55Z"/>
      <path class="cls-1" d="M47.71,147.88l-2-.35a5.87,5.87,0,0,0-4.47-6.68c-5.3-1.48-7.83,4.71-7.93,5l-1.86-.73c1.1-2.82,4.69-7.74,10.33-6.17A7.8,7.8,0,0,1,47.71,147.88Z"/>
    </g>
  </g>
</svg>
