<svg id="Layer_1" data-name="Layer 1" xmlns="http://www.w3.org/2000/svg" viewBox="0 0 178 230.86">
  <title>passion2</title>
  <g>
    <path d="M137.43,56.18c-5.92,0-12.19-1.09-17.23-3.8a66.24,66.24,0,0,1-17.77-14.2l-.46-.54.37-.61c.44-.73,10.84-17.71,20.74-16,4.36.76,7.58,3.68,10.7,6.51,3.9,3.55,7.94,7.22,14.56,7.22h.09c11.8-.06,15.9-5.3,15.94-5.35l3.3-4.36-1.54,5.24c-.23.78-5.68,19.07-12.34,22.61C150.18,54.84,144,56.18,137.43,56.18Zm-33-18.73a66.42,66.42,0,0,0,16.7,13.17c10.08,5.42,25.26,4,31.71.54C156.9,49,161,39.26,163.13,33.08c-2.62,1.7-7.25,3.66-14.68,3.7h-.11c-7.39,0-11.91-4.11-15.91-7.74-3-2.76-5.9-5.36-9.69-6C115.12,21.68,106.37,34.46,104.44,37.45Z"/>
    <path d="M89,230.86a89,89,0,1,1,89-89A89.11,89.11,0,0,1,89,230.86Zm0-176a87,87,0,1,0,87,87A87.1,87.1,0,0,0,89,54.86Z"/>
    <path d="M100.94,54.21l-1.88-.7c0-.08,2.94-7.89,2.94-12.65,0-2.27-2-6.29-4.14-10.56C95.6,25.8,93.05,20.69,92,16.07,89.87,6.37,95.51,3,100.49,0l1,1.71c-5,3-9.38,5.63-7.53,13.93C95,20,97.44,25,99.64,29.41,102,34.09,104,38.12,104,40.86,104,46,101.06,53.88,100.94,54.21Z"/>
  </g>
</svg>
