<svg id="Layer_1" data-name="Layer 1" xmlns="http://www.w3.org/2000/svg" viewBox="0 0 204.1 194.16">
  <title>passion1</title>
  <g>
    <path d="M72.31,145a63.36,63.36,0,0,1-15.11-1.73c-27.79-6.87-37.39-33.72-27-75.62,3.89-15.77,17.49-30.52,37.31-40.48,18.79-9.43,39.43-12.74,55.21-8.84C137.67,22,147,32,150.49,48c2.76,12.77,1.72,29.11-3.08,48.57-3.88,15.69-17.07,30-36.18,39.18A91.48,91.48,0,0,1,72.31,145ZM108.87,18.75c-12.76,0-27.3,3.57-40.5,10.2-19.3,9.7-32.52,24-36.27,39.17-5.82,23.54-10.23,64.35,25.58,73.2,15.44,3.81,35.14,1,52.69-7.41,18.57-9,31.36-22.75,35.1-37.86,13.47-54.56-5.22-71.33-23.27-75.79A55.87,55.87,0,0,0,108.87,18.75Z"/>
    <path d="M65.71,168.1c-3.08,0-6.11-.13-9.08-.41-30.19-2.78-43.91-18.37-50.09-31-9.08-18.48-8.76-43.57.88-68.82,9.45-24.73,26.51-45.1,45.66-54.51,21-10.31,45-15,66-12.91,30.35,3.06,44.11,18.74,50.3,31.35,18.77,38.2-5.81,102.34-47,122.56C104.3,163.28,84.13,168.1,65.71,168.1ZM109,2c-18,0-37.57,4.63-55,13.19-18.7,9.19-35.4,29.17-44.67,53.43s-9.66,49.51-1,67.22C14.29,148,27.54,163,56.82,165.7c20.33,1.88,43.9-2.89,64.66-13.09,40.3-19.8,64.4-82.55,46.06-119.88-6-12.16-19.27-27.28-48.71-30.25C115.61,2.16,112.3,2,109,2Z"/>
    <path d="M119.1,194.1c-12.52,0-25.86-2.45-39.87-7.37C49.54,176.29,27,158.25,26.81,158.06l1.26-1.55c.22.18,22.49,18,51.87,28.35,17.2,6,33.43,8.35,48.25,6.87,18.47-1.85,34.8-9.64,48.55-23.16,14.1-13.87,22.41-29.6,24.7-46.76,1.83-13.74-.17-28.45-5.95-43.7C185.61,52,167.89,33.16,167.71,33l1.45-1.37c.18.19,18.15,19.31,28.18,45.75,9.3,24.5,13.51,60.47-19.2,92.65C161.86,186,141.84,194.1,119.1,194.1Z"/>
    <path d="M110.94,47.29c-5.79,0-10.5-5.39-10.5-12s4.71-12,10.5-12,10.5,5.38,10.5,12S116.73,47.29,110.94,47.29Zm0-22c-4.69,0-8.5,4.48-8.5,10s3.81,10,8.5,10,8.5-4.49,8.5-10S115.62,25.29,110.94,25.29Z"/>
    <path d="M81.44,55.29c-5.52,0-10-5.39-10-12s4.48-12,10-12,10,5.38,10,12S87,55.29,81.44,55.29Zm0-22c-4.41,0-8,4.48-8,10s3.59,10,8,10,8-4.49,8-10S85.85,33.29,81.44,33.29Z"/>
    <path d="M55.44,73.29c-5.52,0-10-5.39-10-12s4.48-12,10-12,10,5.38,10,12S61,73.29,55.44,73.29Zm0-22c-4.41,0-8,4.48-8,10s3.59,10,8,10,8-4.49,8-10S59.85,51.29,55.44,51.29Z"/>
    <path d="M43.44,110.29c-6.07,0-11-5.39-11-12s4.93-12,11-12,11,5.38,11,12S49.5,110.29,43.44,110.29Zm0-22c-5,0-9,4.48-9,10s4,10,9,10,9-4.49,9-10S48.4,88.29,43.44,88.29Z"/>
    <path d="M70.44,96.29c-5.52,0-10-5.39-10-12s4.48-12,10-12,10,5.38,10,12S76,96.29,70.44,96.29Zm0-22c-4.41,0-8,4.48-8,10s3.59,10,8,10,8-4.49,8-10S74.85,74.29,70.44,74.29Z"/>
    <path d="M97.44,82.29c-6.07,0-11-5.39-11-12s4.93-12,11-12,11,5.38,11,12S103.5,82.29,97.44,82.29Zm0-22c-5,0-9,4.48-9,10s4,10,9,10,9-4.49,9-10S102.4,60.29,97.44,60.29Z"/>
    <path d="M62.44,132.29c-5,0-9-5.39-9-12s4-12,9-12,9,5.38,9,12S67.4,132.29,62.44,132.29Zm0-22c-3.86,0-7,4.48-7,10s3.14,10,7,10,7-4.49,7-10S66.3,110.29,62.44,110.29Z"/>
    <path d="M88.44,124.29c-5.52,0-10-5.39-10-12s4.48-12,10-12,10,5.38,10,12S94,124.29,88.44,124.29Zm0-22c-4.41,0-8,4.48-8,10s3.59,10,8,10,8-4.49,8-10S92.85,102.29,88.44,102.29Z"/>
    <path d="M111.94,117.29c-5.24,0-9.5-5.39-9.5-12s4.26-12,9.5-12,9.5,5.38,9.5,12S117.17,117.29,111.94,117.29Zm0-22c-4.14,0-7.5,4.48-7.5,10s3.36,10,7.5,10,7.5-4.49,7.5-10S116.07,95.29,111.94,95.29Z"/>
    <path d="M130.44,99.29c-5.52,0-10-5.39-10-12s4.48-12,10-12,10,5.38,10,12S136,99.29,130.44,99.29Zm0-22c-4.41,0-8,4.48-8,10s3.59,10,8,10,8-4.49,8-10S134.85,77.29,130.44,77.29Z"/>
    <path d="M132.94,66.29c-5.24,0-9.5-5.39-9.5-12s4.26-12,9.5-12,9.5,5.38,9.5,12S138.17,66.29,132.94,66.29Zm0-22c-4.14,0-7.5,4.48-7.5,10s3.36,10,7.5,10,7.5-4.49,7.5-10S137.07,44.29,132.94,44.29Z"/>
    <circle cx="54.94" cy="61.79" r="2.5"/>
    <circle cx="81.94" cy="41.79" r="2.5"/>
    <circle cx="109.94" cy="34.79" r="2.5"/>
    <circle cx="131.94" cy="54.79" r="2.5"/>
    <circle cx="129.94" cy="87.79" r="2.5"/>
    <circle cx="111.94" cy="102.79" r="2.5"/>
    <circle cx="89.94" cy="109.79" r="2.5"/>
    <circle cx="63.94" cy="120.79" r="2.5"/>
    <circle cx="41.94" cy="100.79" r="2.5"/>
    <circle cx="70.94" cy="84.79" r="2.5"/>
    <circle cx="96.94" cy="69.79" r="2.5"/>
  </g>
</svg>
